<svg width="300" height="65" viewBox="0 0 300 65" fill="none" xmlns="http://www.w3.org/2000/svg">
<path d="M65.6744 31.8935C65.7037 35.3311 65.0885 38.7436 63.8605 41.9545C75.7147 39.5931 82.9649 35.951 82.9595 31.8738V31.8694C82.9516 27.7932 75.694 24.1718 63.8369 21.8405C65.0719 25.0471 65.6952 28.4568 65.6744 31.893V31.8935Z" fill="url(#paint0_linear_502_2)"/>
<path d="M9.64459 32.1325L9.6377 26.9446C1.51629 28.2534 -0.0029335 30.1038 2.28882e-05 32.1493C0.00297928 34.1948 1.52762 36.0324 9.651 37.3234L9.64459 32.1325Z" fill="url(#paint1_linear_502_2)"/>
<path d="M32.7414 44.7466C38.8089 44.5342 45.1854 44.1144 51.8369 43.426C55.2459 43.0731 58.5639 42.6699 61.791 42.2162C64.3558 35.5767 64.3472 28.2183 61.7668 21.5847C58.5089 21.1422 55.1597 20.748 51.7192 20.4021C45.0174 19.7319 38.5906 19.3278 32.4723 19.1287C28.2345 13.3978 20.1964 9.4408 9.65148 9.4541L9.6638 18.978C9.6638 20.7204 10.1073 21.7577 11.8847 21.7577L11.9182 21.7518L11.931 31.963L11.9444 42.5084C10.0625 42.5084 9.69435 43.5048 9.69681 45.2546L9.70864 54.8145C20.4551 54.7997 28.6312 50.6663 32.7414 44.7466ZM58.6904 31.9019C58.6915 32.6852 58.4603 33.4511 58.026 34.1029C57.5918 34.7548 56.974 35.2632 56.2508 35.5638C55.5276 35.8645 54.7314 35.944 53.9631 35.7922C53.1947 35.6405 52.4886 35.2642 51.9341 34.7111C51.3795 34.158 51.0014 33.4529 50.8476 32.6849C50.6938 31.9169 50.7713 31.1206 51.0701 30.3966C51.3689 29.6726 51.8757 29.0536 52.5263 28.6176C53.177 28.1816 53.9423 27.9484 54.7255 27.9474C55.7757 27.9462 56.7833 28.3622 57.5268 29.1038C58.2703 29.8453 58.6889 30.8518 58.6904 31.9019ZM45.7901 31.9187C45.791 32.7018 45.5599 33.4676 45.1253 34.1193C44.6912 34.771 44.0737 35.2792 43.3503 35.5798C42.6274 35.8804 41.8311 35.9598 41.0629 35.808C40.2946 35.6561 39.589 35.2799 39.0346 34.7269C38.4798 34.1738 38.1018 33.4688 37.948 32.7009C37.7943 31.933 37.8722 31.1368 38.1708 30.413C38.4694 29.6891 38.976 29.0701 39.6269 28.6342C40.2774 28.1983 41.0427 27.9652 41.8257 27.9642C42.8758 27.963 43.8835 28.379 44.6266 29.1205C45.3702 29.8622 45.7886 30.8686 45.7901 31.9187ZM24.9704 31.9453C24.9694 31.1622 25.2005 30.3964 25.6351 29.7447C26.0692 29.0931 26.6867 28.5848 27.4101 28.2842C28.133 27.9836 28.9293 27.9043 29.6975 28.0561C30.4658 28.2079 31.1714 28.5841 31.7263 29.1372C32.2807 29.6902 32.6586 30.3952 32.8124 31.1631C32.9661 31.931 32.8887 32.7272 32.5896 33.451C32.291 34.1749 31.7844 34.7939 31.1335 35.2298C30.483 35.6657 29.7177 35.8989 28.9347 35.8998C28.4148 35.9005 27.8999 35.7987 27.4189 35.6003C26.9385 35.4019 26.5014 35.1107 26.1333 34.7435C25.7652 34.3762 25.473 33.9401 25.2734 33.4598C25.0738 32.9796 24.9703 32.4648 24.9699 31.9448L24.9704 31.9453Z" fill="url(#paint2_linear_502_2)"/>
<path d="M57.0391 31.9064C57.0295 31.3 56.7817 30.7217 56.3492 30.2966C55.9167 29.8714 55.3343 29.6335 54.7278 29.6343C54.1214 29.6351 53.5395 29.8745 53.1081 30.3007C52.6767 30.727 52.4304 31.3059 52.4223 31.9123C52.4231 32.5245 52.6671 33.1113 53.1005 33.5437C53.534 33.9761 54.1215 34.2185 54.7337 34.2177C55.3459 34.2169 55.9328 33.973 56.3651 33.5395C56.7975 33.1061 57.0399 32.5186 57.0391 31.9064Z" fill="url(#paint3_linear_502_2)"/>
<path d="M44.1388 31.9231V31.9187C44.1294 31.3123 43.8816 30.734 43.4489 30.3088C43.0162 29.8837 42.4338 29.6458 41.8277 29.6466C41.2211 29.6474 40.6391 29.8867 40.2079 30.313C39.7763 30.7393 39.5299 31.3182 39.522 31.9246C39.5225 32.5369 39.7664 33.1238 40.2 33.5563C40.6332 33.9888 41.2211 34.2314 41.8331 34.2308C42.4456 34.2301 43.0325 33.9863 43.4647 33.5528C43.8973 33.1194 44.1398 32.5319 44.1393 31.9197L44.1388 31.9231Z" fill="url(#paint4_linear_502_2)"/>
<path d="M31.2379 31.9394V31.9369C31.2286 31.3305 30.9807 30.7522 30.548 30.3271C30.1154 29.902 29.5329 29.664 28.9268 29.6648C28.3202 29.6656 27.7382 29.905 27.3071 30.3313C26.8754 30.7575 26.629 31.3364 26.6211 31.9428C26.6221 32.555 26.8655 33.1419 27.2992 33.5743C27.7328 34.0067 28.3202 34.2492 28.9322 34.2485C29.5442 34.2478 30.1311 34.0039 30.5638 33.5705C30.996 33.1371 31.2384 32.5496 31.2379 31.9374V31.9394Z" fill="url(#paint5_linear_502_2)"/>
<path d="M64.1335 44.4031C73.9274 42.4517 85.6062 38.6933 85.6062 31.8664V31.7989C85.5426 26.3439 78.3087 22.1627 64.1045 19.3702L64.0739 19.3643L59.632 18.5837C57.623 18.2678 55.5376 17.987 53.4152 17.746C52.9931 17.6981 52.5676 17.6515 52.1389 17.6065C49.2917 17.3079 46.3015 17.0729 43.2315 16.9053C43.8835 16.0602 44.5881 15.2572 45.3416 14.5011C48.9201 10.9179 53.5085 8.51432 58.4916 7.61249C63.4748 6.71067 68.6145 7.35369 73.2218 9.45542C77.8292 11.5571 81.684 15.017 84.2695 19.3713C86.855 23.7256 88.0475 28.7663 87.6874 33.8175C87.3273 38.8688 85.4316 43.6892 82.2546 47.6327C79.0775 51.5764 74.7709 54.4542 69.9119 55.8808C65.053 57.3079 59.874 57.2152 55.0693 55.6157C50.2645 54.0157 46.0635 50.9856 43.0295 46.931C46.1783 46.7556 49.2488 46.5078 52.1749 46.1919C52.602 46.1456 53.0274 46.0981 53.4512 46.0495C55.5701 45.8031 57.656 45.5192 59.6601 45.198L64.1335 44.4031Z" fill="url(#paint6_linear_502_2)"/>
<path d="M94.999 32.0236C94.9799 24.9327 92.6141 18.0475 88.2708 12.4424C83.9275 6.8372 77.851 2.82739 70.9894 1.03855C64.1278 -0.750281 56.867 -0.217525 50.3399 2.55371C43.813 5.32493 38.3866 10.1788 34.9081 16.3578C36.245 16.4235 37.5671 16.4965 38.8735 16.5766C41.2886 12.8393 44.5384 9.71392 48.3673 7.44652C52.7087 4.88408 57.6505 3.51528 62.6917 3.47895C67.7327 3.44263 72.6938 4.74007 77.0717 7.2397C81.4496 9.7393 85.0886 13.3522 87.6197 17.7119C90.1508 22.0717 91.484 27.0233 91.484 32.0645C91.484 37.1058 90.1508 42.0574 87.6197 46.4171C85.0886 50.7766 81.4496 54.3897 77.0717 56.8895C72.6938 59.3889 67.7327 60.6863 62.6917 60.6499C57.6505 60.6139 52.7087 59.245 48.3673 56.6825C44.4379 54.3557 41.12 51.126 38.6877 47.2607C37.3878 47.3409 36.075 47.4149 34.749 47.4829C38.1752 53.7367 43.5864 58.6719 50.1283 61.5093C56.6705 64.3467 63.9712 64.9252 70.8784 63.1527C77.7856 61.3807 83.906 57.3586 88.2738 51.7218C92.6417 46.0853 95.0082 39.1546 95 32.0236H94.999Z" fill="url(#paint7_linear_502_2)"/>
<path d="M119.67 30.86L130.555 45H126.67L117.64 33.1H117.465L113.58 37.125V45H110.395V20.57H113.58V33.065H113.685L125.48 20.57H129.645L119.67 30.86ZM148.892 36.075V37.195H135.382C135.569 38.8283 136.176 40.1 137.202 41.01C138.229 41.92 139.781 42.375 141.857 42.375C143.957 42.375 145.894 41.7917 147.667 40.625H147.842V43.705C145.882 44.8017 143.572 45.35 140.912 45.35C138.276 45.35 136.152 44.545 134.542 42.935C132.956 41.3017 132.162 39.1083 132.162 36.355C132.162 33.5783 132.874 31.2917 134.297 29.495C135.721 27.6983 137.797 26.8 140.527 26.8C143.257 26.8 145.334 27.6983 146.757 29.495C148.181 31.2917 148.892 33.485 148.892 36.075ZM135.382 34.605H145.707C145.614 32.925 145.042 31.6533 143.992 30.79C142.966 29.9267 141.811 29.495 140.527 29.495C139.244 29.495 138.089 29.9267 137.062 30.79C136.036 31.6533 135.476 32.925 135.382 34.605ZM153.488 28.13C155.518 27.2433 157.688 26.8 159.998 26.8C162.332 26.8 164.117 27.4767 165.353 28.83C166.59 30.1833 167.208 31.805 167.208 33.695V45H164.408L164.023 42.76H163.918C162.238 44.4867 160.08 45.35 157.443 45.35C155.857 45.35 154.503 44.8717 153.383 43.915C152.287 42.9583 151.738 41.6517 151.738 39.995C151.738 38.3383 152.415 36.9967 153.768 35.97C155.145 34.9433 157.152 34.43 159.788 34.43H164.023V34.15C164.023 32.61 163.638 31.5017 162.868 30.825C162.122 30.1483 160.815 29.81 158.948 29.81C157.082 29.81 155.332 30.2067 153.698 31H153.488V28.13ZM164.023 39.925V36.985H160.208C156.685 36.985 154.923 37.9183 154.923 39.785C154.923 41.6283 156.16 42.55 158.633 42.55C159.66 42.55 160.652 42.305 161.608 41.815C162.565 41.3017 163.37 40.6717 164.023 39.925ZM185.502 27.15V30.125L175.387 41.92V42.025H185.502V45H171.432V42.06L181.687 30.265V30.125H171.747V27.15H185.502ZM188.968 36.075C188.968 33.2983 189.785 31.0583 191.418 29.355C193.051 27.6517 195.21 26.8 197.893 26.8C200.6 26.8 202.77 27.6517 204.403 29.355C206.06 31.0583 206.888 33.2983 206.888 36.075C206.888 38.8517 206.06 41.0917 204.403 42.795C202.77 44.4983 200.6 45.35 197.893 45.35C195.21 45.35 193.051 44.4983 191.418 42.795C189.785 41.0917 188.968 38.8517 188.968 36.075ZM193.868 40.87C195.035 41.92 196.388 42.445 197.928 42.445C199.468 42.445 200.81 41.92 201.953 40.87C203.12 39.7967 203.703 38.1983 203.703 36.075C203.703 33.9283 203.12 32.33 201.953 31.28C200.81 30.23 199.468 29.705 197.928 29.705C196.388 29.705 195.035 30.23 193.868 31.28C192.725 32.33 192.153 33.9283 192.153 36.075C192.153 38.1983 192.725 39.7967 193.868 40.87ZM230.107 20.57H233.292V45H229.372L215.232 24.875H215.162V45H211.977V20.57H215.897L230.002 40.66H230.107V20.57ZM243.367 37.9785H238.953L238.934 37.4512H242.566C243.426 37.4512 244.145 37.3405 244.725 37.1191C245.311 36.8978 245.75 36.5592 246.043 36.1035C246.336 35.6478 246.482 35.0749 246.482 34.3848C246.482 33.7012 246.326 33.1315 246.014 32.6758C245.708 32.2201 245.249 31.8783 244.637 31.6504C244.031 31.4225 243.276 31.3086 242.371 31.3086H239.158V45H238.631V30.7812H242.371C243.087 30.7812 243.732 30.8529 244.305 30.9961C244.878 31.1393 245.366 31.3607 245.77 31.6602C246.173 31.9596 246.482 32.3405 246.697 32.8027C246.912 33.2585 247.02 33.7988 247.02 34.4238C247.02 35.0098 246.909 35.5371 246.688 36.0059C246.473 36.4746 246.157 36.8555 245.74 37.1484C245.324 37.4414 244.809 37.6204 244.197 37.6855L243.367 37.9785ZM243.27 45H238.934L239.1 44.4727H243.27C244.07 44.4727 244.757 44.3392 245.33 44.0723C245.91 43.8053 246.355 43.4212 246.668 42.9199C246.98 42.4121 247.137 41.8066 247.137 41.1035C247.137 40.5566 246.997 40.0456 246.717 39.5703C246.443 39.0951 246.027 38.7109 245.467 38.418C244.907 38.125 244.207 37.9785 243.367 37.9785H241.062L241.082 37.4512H244.451L244.49 37.6367C245.089 37.7083 245.626 37.9069 246.102 38.2324C246.583 38.5579 246.964 38.9714 247.244 39.4727C247.524 39.9674 247.664 40.5046 247.664 41.084C247.664 41.9238 247.475 42.6367 247.098 43.2227C246.727 43.8021 246.212 44.2448 245.555 44.5508C244.897 44.8503 244.135 45 243.27 45ZM260.77 36.8262V38.9551C260.77 39.8796 260.643 40.7259 260.389 41.4941C260.141 42.2559 259.783 42.9134 259.314 43.4668C258.852 44.0202 258.292 44.4466 257.635 44.7461C256.977 45.0456 256.238 45.1953 255.418 45.1953C254.604 45.1953 253.865 45.0456 253.201 44.7461C252.544 44.4466 251.977 44.0202 251.502 43.4668C251.033 42.9134 250.672 42.2559 250.418 41.4941C250.171 40.7259 250.047 39.8796 250.047 38.9551V36.8262C250.047 35.8952 250.171 35.0488 250.418 34.2871C250.672 33.5254 251.033 32.8678 251.502 32.3145C251.971 31.7611 252.534 31.3346 253.191 31.0352C253.849 30.7357 254.585 30.5859 255.398 30.5859C256.219 30.5859 256.958 30.7357 257.615 31.0352C258.273 31.3346 258.836 31.7611 259.305 32.3145C259.78 32.8678 260.141 33.5254 260.389 34.2871C260.643 35.0488 260.77 35.8952 260.77 36.8262ZM260.242 38.9551V36.8066C260.242 35.9733 260.135 35.2116 259.92 34.5215C259.705 33.8249 259.389 33.2227 258.973 32.7148C258.556 32.207 258.048 31.8132 257.449 31.5332C256.85 31.2533 256.167 31.1133 255.398 31.1133C254.637 31.1133 253.956 31.2533 253.357 31.5332C252.765 31.8132 252.26 32.207 251.844 32.7148C251.434 33.2227 251.121 33.8249 250.906 34.5215C250.691 35.2116 250.584 35.9733 250.584 36.8066V38.9551C250.584 39.7949 250.691 40.5632 250.906 41.2598C251.128 41.9564 251.443 42.5586 251.854 43.0664C252.27 43.5742 252.778 43.9681 253.377 44.248C253.976 44.528 254.656 44.668 255.418 44.668C256.186 44.668 256.867 44.528 257.459 44.248C258.058 43.9681 258.562 43.5742 258.973 43.0664C259.389 42.5586 259.705 41.9564 259.92 41.2598C260.135 40.5632 260.242 39.7949 260.242 38.9551ZM274.09 36.8262V38.9551C274.09 39.8796 273.963 40.7259 273.709 41.4941C273.462 42.2559 273.104 42.9134 272.635 43.4668C272.173 44.0202 271.613 44.4466 270.955 44.7461C270.298 45.0456 269.559 45.1953 268.738 45.1953C267.924 45.1953 267.186 45.0456 266.521 44.7461C265.864 44.4466 265.298 44.0202 264.822 43.4668C264.354 42.9134 263.992 42.2559 263.738 41.4941C263.491 40.7259 263.367 39.8796 263.367 38.9551V36.8262C263.367 35.8952 263.491 35.0488 263.738 34.2871C263.992 33.5254 264.354 32.8678 264.822 32.3145C265.291 31.7611 265.854 31.3346 266.512 31.0352C267.169 30.7357 267.905 30.5859 268.719 30.5859C269.539 30.5859 270.278 30.7357 270.936 31.0352C271.593 31.3346 272.156 31.7611 272.625 32.3145C273.1 32.8678 273.462 33.5254 273.709 34.2871C273.963 35.0488 274.09 35.8952 274.09 36.8262ZM273.562 38.9551V36.8066C273.562 35.9733 273.455 35.2116 273.24 34.5215C273.025 33.8249 272.71 33.2227 272.293 32.7148C271.876 32.207 271.368 31.8132 270.77 31.5332C270.171 31.2533 269.487 31.1133 268.719 31.1133C267.957 31.1133 267.277 31.2533 266.678 31.5332C266.085 31.8132 265.581 32.207 265.164 32.7148C264.754 33.2227 264.441 33.8249 264.227 34.5215C264.012 35.2116 263.904 35.9733 263.904 36.8066V38.9551C263.904 39.7949 264.012 40.5632 264.227 41.2598C264.448 41.9564 264.764 42.5586 265.174 43.0664C265.59 43.5742 266.098 43.9681 266.697 44.248C267.296 44.528 267.977 44.668 268.738 44.668C269.507 44.668 270.187 44.528 270.779 44.248C271.378 43.9681 271.883 43.5742 272.293 43.0664C272.71 42.5586 273.025 41.9564 273.24 41.2598C273.455 40.5632 273.562 39.7949 273.562 38.9551ZM277.869 30.7812V45H277.342V30.7812H277.869ZM286.873 30.7812L280.516 37.1777L277.654 39.8145L277.732 39.1309L280.193 36.7285L286.111 30.7812H286.873ZM286.678 45L279.979 37.334L280.301 36.875L287.361 45H286.678ZM298.553 41.5918C298.553 41.1426 298.475 40.7422 298.318 40.3906C298.162 40.0391 297.911 39.7233 297.566 39.4434C297.221 39.1634 296.769 38.9062 296.209 38.6719C295.656 38.4375 294.975 38.2096 294.168 37.9883C293.445 37.793 292.794 37.5846 292.215 37.3633C291.635 37.1354 291.141 36.875 290.73 36.582C290.327 36.2891 290.018 35.9408 289.803 35.5371C289.588 35.127 289.48 34.6354 289.48 34.0625C289.48 33.5221 289.598 33.0371 289.832 32.6074C290.073 32.1777 290.405 31.8132 290.828 31.5137C291.258 31.2142 291.759 30.9863 292.332 30.8301C292.905 30.6673 293.527 30.5859 294.197 30.5859C295.122 30.5859 295.939 30.7617 296.648 31.1133C297.358 31.4648 297.915 31.9564 298.318 32.5879C298.729 33.2129 298.934 33.9453 298.934 34.7852H298.406C298.406 34.082 298.23 33.4538 297.879 32.9004C297.527 32.347 297.036 31.9108 296.404 31.5918C295.779 31.2728 295.044 31.1133 294.197 31.1133C293.305 31.1133 292.547 31.25 291.922 31.5234C291.297 31.7969 290.822 32.1582 290.496 32.6074C290.171 33.0501 290.008 33.5286 290.008 34.043C290.008 34.4206 290.073 34.7721 290.203 35.0977C290.34 35.4232 290.568 35.7259 290.887 36.0059C291.206 36.2793 291.645 36.5397 292.205 36.7871C292.765 37.028 293.468 37.2591 294.314 37.4805C295.018 37.6628 295.659 37.8678 296.238 38.0957C296.824 38.3236 297.329 38.5938 297.752 38.9062C298.182 39.2188 298.51 39.5931 298.738 40.0293C298.973 40.459 299.09 40.9733 299.09 41.5723C299.09 42.1517 298.963 42.666 298.709 43.1152C298.462 43.5645 298.117 43.9453 297.674 44.2578C297.231 44.5638 296.717 44.7982 296.131 44.9609C295.551 45.1172 294.93 45.1953 294.266 45.1953C293.66 45.1953 293.048 45.1237 292.43 44.9805C291.811 44.8372 291.245 44.6061 290.73 44.2871C290.216 43.9616 289.803 43.5286 289.49 42.9883C289.178 42.4479 289.021 41.7806 289.021 40.9863H289.549C289.549 41.696 289.695 42.2884 289.988 42.7637C290.281 43.2389 290.662 43.6165 291.131 43.8965C291.606 44.1699 292.117 44.3685 292.664 44.4922C293.217 44.6094 293.751 44.668 294.266 44.668C295.099 44.668 295.838 44.5378 296.482 44.2773C297.127 44.0169 297.632 43.6556 297.996 43.1934C298.367 42.7311 298.553 42.1973 298.553 41.5918Z" fill="white"/>
<defs>
<linearGradient id="paint0_linear_502_2" x1="1.45905" y1="31.8975" x2="64.5444" y2="31.8975" gradientUnits="userSpaceOnUse">
<stop stop-color="#1153FC"/>
<stop offset="1" stop-color="#5581F1"/>
</linearGradient>
<linearGradient id="paint1_linear_502_2" x1="1.44779" y1="32.134" x2="64.5363" y2="32.134" gradientUnits="userSpaceOnUse">
<stop stop-color="#1153FC"/>
<stop offset="1" stop-color="#5581F1"/>
</linearGradient>
<linearGradient id="paint2_linear_502_2" x1="1.43496" y1="32.1343" x2="64.5192" y2="32.1343" gradientUnits="userSpaceOnUse">
<stop stop-color="#1153FC"/>
<stop offset="1" stop-color="#5581F1"/>
</linearGradient>
<linearGradient id="paint3_linear_502_2" x1="1.45269" y1="31.926" x2="64.5415" y2="31.926" gradientUnits="userSpaceOnUse">
<stop stop-color="#1153FC"/>
<stop offset="1" stop-color="#5581F1"/>
</linearGradient>
<linearGradient id="paint4_linear_502_2" x1="1.45221" y1="31.9387" x2="64.5385" y2="31.9387" gradientUnits="userSpaceOnUse">
<stop stop-color="#1153FC"/>
<stop offset="1" stop-color="#5581F1"/>
</linearGradient>
<linearGradient id="paint5_linear_502_2" x1="1.4502" y1="31.9567" x2="64.5389" y2="31.9567" gradientUnits="userSpaceOnUse">
<stop stop-color="#1153FC"/>
<stop offset="1" stop-color="#5581F1"/>
</linearGradient>
<linearGradient id="paint6_linear_502_2" x1="1.48371" y1="32.0513" x2="64.5402" y2="32.0513" gradientUnits="userSpaceOnUse">
<stop stop-color="#1153FC"/>
<stop offset="1" stop-color="#5581F1"/>
</linearGradient>
<linearGradient id="paint7_linear_502_2" x1="1.43004" y1="32.08" x2="64.513" y2="32.08" gradientUnits="userSpaceOnUse">
<stop stop-color="#1153FC"/>
<stop offset="1" stop-color="#5581F1"/>
</linearGradient>
</defs>
</svg>
